HIERARCHY
ROOT Hips
{
	OFFSET -0.001795 -0.223333 0.028219
	CHANNELS 6 Xposition Yposition Zposition Zrotation Yrotation Xrotation 
	JOINT LeftUpLeg
	{
		OFFSET 0.069520 -0.091406 -0.006815
		CHANNELS 3 Zrotation Yrotation Xrotation
		JOINT LeftLeg
		{
			OFFSET 0.034277 -0.375199 -0.004496
			CHANNELS 3 Zrotation Yrotation Xrotation
			JOINT LeftFoot
			{
				OFFSET -0.013596 -0.397961 -0.043693
				CHANNELS 3 Zrotation Yrotation Xrotation
				JOINT LeftToe
				{
					OFFSET 0.026358 -0.055791 0.119288
					CHANNELS 3 Zrotation Yrotation Xrotation
					End Site
					{
						OFFSET 0.000000 0.000000 0.000000
					}
				}
			}
		}
	}
	JOINT RightUpLeg
	{
		OFFSET -0.067670 -0.090522 -0.004320
		CHANNELS 3 Zrotation Yrotation Xrotation
		JOINT RightLeg
		{
			OFFSET -0.038290 -0.382569 -0.008850
			CHANNELS 3 Zrotation Yrotation Xrotation
			JOINT RightFoot
			{
				OFFSET 0.015774 -0.398415 -0.042312
				CHANNELS 3 Zrotation Yrotation Xrotation
				JOINT RightToe
				{
					OFFSET -0.025372 -0.048144 0.123348
					CHANNELS 3 Zrotation Yrotation Xrotation
					End Site
					{
						OFFSET 0.000000 0.000000 0.000000
					}
				}
			}
		}
	}
	JOINT Spine
	{
		OFFSET -0.002533 0.108963 -0.026696
		CHANNELS 3 Zrotation Yrotation Xrotation
		JOINT Spine1
		{
			OFFSET 0.005487 0.135180 0.001092
			CHANNELS 3 Zrotation Yrotation Xrotation
			JOINT Spine2
			{
				OFFSET 0.001457 0.052922 0.025425
				CHANNELS 3 Zrotation Yrotation Xrotation
				JOINT Neck
				{
					OFFSET -0.002778 0.213870 -0.042857
					CHANNELS 3 Zrotation Yrotation Xrotation
					JOINT Head
					{
						OFFSET 0.005152 0.064970 0.051349
						CHANNELS 3 Zrotation Yrotation Xrotation
						End Site
						{
							OFFSET 0.000000 0.000000 0.000000
						}
					}
				}
				JOINT LeftShoulder
				{
					OFFSET 0.078845 0.121749 -0.034090
					CHANNELS 3 Zrotation Yrotation Xrotation
					JOINT LeftArm
					{
						OFFSET 0.090977 0.030469 -0.008868
						CHANNELS 3 Zrotation Yrotation Xrotation
						JOINT LeftForeArm
						{
							OFFSET 0.259612 -0.012772 -0.027456
							CHANNELS 3 Zrotation Yrotation Xrotation
							JOINT LeftHand
							{
								OFFSET 0.249234 0.008986 -0.001171
								CHANNELS 3 Zrotation Yrotation Xrotation
								End Site
								{
									OFFSET 0.000000 0.000000 0.000000
								}
							}
						}
					}
				}
				JOINT RightShoulder
				{
					OFFSET -0.081759 0.118833 -0.038615
					CHANNELS 3 Zrotation Yrotation Xrotation
					JOINT RightArm
					{
						OFFSET -0.096012 0.032551 -0.009143
						CHANNELS 3 Zrotation Yrotation Xrotation
						JOINT RightForeArm
						{
							OFFSET -0.253742 -0.013329 -0.021401
							CHANNELS 3 Zrotation Yrotation Xrotation
							JOINT RightHand
							{
								OFFSET -0.255298 0.007772 -0.005559
								CHANNELS 3 Zrotation Yrotation Xrotation
								End Site
								{
									OFFSET 0.000000 0.000000 0.000000
								}
							}
						}
					}
				}
			}
		}
	}
}
MOTION
Frames: 16
Frame Time: 0.050000
0.000000 0.954369 0.000000 -0.763702 -5.009017 -0.392265 0.724557 0.309479 3.450821 -1.087058 0.193102 -2.649334 0.707358 4.506771 9.371949 0.000000 0.000000 0.000000 -1.498664 -0.237091 3.514291 1.086124 -0.149402 -1.490261 -0.564205 -7.092243 13.057106 0.000000 0.000000 0.000000 5.263037 -0.679056 7.654115 -6.503416 2.055571 -25.573503 -0.242326 7.222120 29.583810 10.262668 -3.719262 -26.904459 0.000000 0.000000 0.000000 -21.021996 -7.713457 2.197416 -51.723356 -3.174900 -7.248686 -13.864240 -28.767724 4.872060 0.000000 0.000000 0.000000 30.591514 -3.752598 -2.862490 55.059496 3.946512 -6.782509 11.749743 26.288050 4.145005 0.000000 0.000000 0.000000 
0.000408 0.953111 0.002052 -0.830733 -4.277381 0.150612 0.950019 0.307409 3.570046 -1.304922 0.239091 -3.786191 0.357556 3.903155 9.164959 0.000000 0.000000 0.000000 -1.454894 -0.226324 3.298390 1.277800 -0.165489 -1.447096 -0.996218 -7.500869 12.179905 0.000000 0.000000 0.000000 5.420988 -0.648873 7.006608 -7.638288 2.342735 -25.237397 0.113337 6.385479 29.840568 10.199387 -3.538678 -28.221273 0.000000 0.000000 0.000000 -20.413706 -6.974322 1.924733 -51.670552 -3.580316 -7.140953 -14.107171 -28.779620 4.963539 0.000000 0.000000 0.000000 30.568376 -3.990080 -3.179425 55.527653 3.797090 -6.862192 12.152052 27.109130 4.390404 0.000000 0.000000 0.000000 
0.000740 0.952605 0.003770 -0.385847 -3.929149 0.117029 0.757008 0.275389 3.152403 -1.816181 0.265200 -2.909154 0.229272 3.633521 8.911408 0.000000 0.000000 0.000000 -1.720277 -0.217746 3.373056 0.970923 -0.142510 -1.514761 -1.379711 -8.209992 12.317908 0.000000 0.000000 0.000000 5.167772 -0.628427 6.959651 -8.018789 2.414931 -25.754901 0.679777 6.273205 30.580650 9.270410 -3.152814 -27.415057 0.000000 0.000000 0.000000 -20.628676 -7.342049 2.128472 -50.730476 -3.535512 -7.127142 -14.814057 -27.794640 4.945926 0.000000 0.000000 0.000000 30.409713 -3.875993 -2.998974 55.001723 4.204589 -6.752630 11.488230 27.054113 4.232641 0.000000 0.000000 0.000000 
0.000842 0.951518 0.005764 -0.254932 -3.438505 0.077961 0.617712 0.279865 3.171919 -1.765361 0.255522 -2.723199 0.074418 3.274546 8.491767 0.000000 0.000000 0.000000 -2.049032 -0.232050 3.771156 1.370868 -0.185456 -1.808312 -1.630848 -8.539818 12.073050 0.000000 0.000000 0.000000 5.060316 -0.658974 7.410449 -8.374434 2.468797 -26.541507 0.746550 6.376063 31.473685 9.948313 -3.305124 -28.773134 0.000000 0.000000 0.000000 -20.774862 -7.697855 2.230604 -50.154768 -2.773851 -7.417237 -15.375019 -28.462684 5.195354 0.000000 0.000000 0.000000 31.159533 -4.329200 -3.129808 54.560718 4.216225 -6.910403 13.175552 28.318915 4.966607 0.000000 0.000000 0.000000 
0.000737 0.950667 0.007850 -0.108492 -3.180118 0.025773 0.270763 0.255362 2.790760 -1.400356 0.199748 -1.756601 0.103587 3.180673 7.969560 0.000000 0.000000 0.000000 -2.189818 -0.233563 3.879741 1.387941 -0.181964 -1.599163 -1.824482 -8.769957 11.725841 0.000000 0.000000 0.000000 4.739453 -0.675328 7.912829 -8.033434 2.419722 -25.989844 0.460132 6.424244 30.597514 9.835237 -3.204170 -28.590366 0.000000 0.000000 0.000000 -20.635975 -7.416894 1.976046 -49.826607 -2.112421 -7.523661 -15.793971 -29.171744 5.409119 0.000000 0.000000 0.000000 30.879909 -4.309740 -3.051288 53.846544 3.992189 -6.865253 13.934651 29.611298 5.420137 0.000000 0.000000 0.000000 
0.000576 0.949815 0.010477 -0.245040 -2.931970 0.120016 0.321929 0.213275 2.363001 -1.188137 0.157665 -0.891053 0.145111 3.088715 7.396100 0.000000 0.000000 0.000000 -1.959945 -0.240958 3.756683 1.304892 -0.163835 -1.178189 -2.014475 -9.012089 11.424392 0.000000 0.000000 0.000000 4.563564 -0.695508 8.308302 -7.931230 2.374007 -26.553143 0.431887 6.717870 30.978004 10.316196 -3.209638 -29.870813 0.000000 0.000000 0.000000 -20.417450 -7.152345 1.719745 -49.644623 -1.393148 -7.799779 -16.444624 -29.826685 5.688811 0.000000 0.000000 0.000000 30.692105 -4.150798 -2.713228 53.039742 4.125666 -6.837125 15.618111 31.634906 6.379593 0.000000 0.000000 0.000000 
0.000430 0.949304 0.014519 -0.401998 -2.922847 0.212992 0.234846 0.141865 1.567037 -0.754407 0.065717 0.827214 0.355365 3.267284 6.774139 0.000000 0.000000 0.000000 -1.594363 -0.262391 3.736625 0.953618 -0.121642 -0.831005 -2.081657 -9.077653 11.211009 0.000000 0.000000 0.000000 4.569379 -0.719329 8.586081 -7.926341 2.392106 -26.060735 0.186414 6.875807 30.558507 10.519937 -3.241603 -30.118253 0.000000 0.000000 0.000000 -20.212710 -6.132374 1.106208 -49.316000 -0.754945 -7.954796 -17.385935 -31.966049 6.391470 0.000000 0.000000 0.000000 30.256904 -4.149958 -2.625459 52.618041 3.956712 -6.839336 18.180619 34.253861 7.842420 0.000000 0.000000 0.000000 
0.000694 0.948590 0.020723 -0.492103 -2.600030 0.159345 0.257597 0.058142 0.661937 -0.641029 -0.011304 3.208471 0.432625 3.193760 6.052341 0.000000 0.000000 0.000000 -1.183609 -0.305454 3.908241 0.402020 -0.048906 -0.228070 -2.323584 -9.424982 10.932959 0.000000 0.000000 0.000000 4.314815 -0.732804 9.027146 -7.794217 2.365903 -26.075549 0.267036 6.843500 30.875350 10.851558 -3.302210 -30.758131 0.000000 0.000000 0.000000 -19.632119 -5.324847 0.664473 -49.363695 -0.032070 -8.282274 -20.290416 -35.893658 8.217576 0.000000 0.000000 0.000000 29.505510 -4.047297 -2.417542 51.813246 3.815115 -6.854225 23.008171 38.689283 10.880659 0.000000 0.000000 0.000000 
0.001735 0.947846 0.029244 -0.646352 -3.084438 -0.007652 -0.130076 0.029202 0.297877 0.032341 -0.169083 5.263398 0.876069 3.807403 5.479509 0.000000 0.000000 0.000000 -1.168462 -0.366594 4.648666 0.368345 -0.036487 0.008615 -2.072280 -8.754056 10.065864 0.000000 0.000000 0.000000 4.051341 -0.732266 9.403297 -7.621141 2.345323 -25.555900 0.420875 7.242444 30.827782 10.782410 -3.165342 -31.232837 0.000000 0.000000 0.000000 -19.194351 -4.037528 -0.023549 -48.856565 1.386015 -8.743308 -26.196264 -41.359238 11.919014 0.000000 0.000000 0.000000 28.339510 -4.258725 -2.461769 50.987531 3.524584 -6.865848 30.292860 43.128064 15.518734 0.000000 0.000000 0.000000 
0.004051 0.946092 0.039950 -0.655298 -3.005903 0.073699 -0.348321 -0.025586 -0.294213 0.079815 -0.240111 7.377315 1.066868 3.928145 4.710687 0.000000 0.000000 0.000000 -1.409292 -0.346569 4.606324 0.351750 0.027452 1.648960 -1.999591 -8.167290 8.595669 0.000000 0.000000 0.000000 4.118416 -0.773234 9.864922 -7.628509 2.327010 -26.063786 0.217243 6.833385 31.600085 11.092247 -3.309835 -31.945511 0.000000 0.000000 0.000000 -18.232772 -3.110892 -0.304756 -49.105625 2.897609 -9.490399 -35.145112 -48.818125 18.840275 0.000000 0.000000 0.000000 27.518779 -4.304462 -2.554111 49.834793 3.847585 -6.649412 41.359970 48.815224 23.619927 0.000000 0.000000 0.000000 
0.007713 0.943344 0.052934 -0.534243 -3.510404 0.123157 -0.627916 -0.060821 -0.659757 -0.337425 -0.209193 9.492041 1.494385 4.477331 3.896680 0.000000 0.000000 0.000000 -1.988215 -0.266566 4.171437 0.063968 0.179853 4.442225 -1.446573 -6.295573 6.302876 0.000000 0.000000 0.000000 4.246411 -0.800220 10.124145 -7.450327 2.304924 -25.327562 -0.063751 6.876385 31.114193 11.054696 -3.420111 -31.294883 0.000000 0.000000 0.000000 -17.380226 -2.290693 -0.603321 -48.682277 4.989399 -10.164617 -48.937209 -55.379675 29.931096 0.000000 0.000000 0.000000 26.640290 -4.424248 -2.708271 49.196625 4.118649 -6.377520 54.911237 54.362721 35.072905 0.000000 0.000000 0.000000 
0.012345 0.939669 0.068598 -0.614684 -4.201531 0.026185 -0.797086 -0.084859 -0.890253 -0.782436 -0.147966 12.004277 2.028678 5.232468 2.966057 0.000000 0.000000 0.000000 -1.753570 -0.182650 2.971352 -0.137058 0.480635 9.938928 -2.557655 -7.356152 2.477890 0.000000 0.000000 0.000000 4.423018 -0.846866 10.632899 -7.452824 2.299796 -25.295408 0.047454 6.709928 31.613949 11.138145 -3.418476 -32.255729 0.000000 0.000000 0.000000 -17.052271 -1.870962 -0.629568 -47.928478 5.526399 -10.264345 -67.960538 -60.177430 46.618471 0.000000 0.000000 0.000000 26.323413 -4.583165 -2.996418 48.088726 5.877421 -5.607714 74.388826 59.759720 53.575493 0.000000 0.000000 0.000000 
0.017261 0.934588 0.087423 -0.648892 -5.459333 -0.379907 -0.853011 -0.109497 -1.107137 -1.791779 0.115044 15.476394 2.741399 6.454511 2.282989 0.000000 0.000000 0.000000 -2.371420 -0.002382 1.110860 0.363491 0.791907 16.935199 -2.903956 -7.184050 -0.038079 0.000000 0.000000 0.000000 4.292352 -0.850247 11.122967 -6.985807 2.181799 -24.962227 -0.378832 7.092009 31.715928 11.455591 -3.523857 -33.060321 0.000000 0.000000 0.000000 -16.172787 -2.448883 -0.135755 -47.550956 4.540584 -9.880747 -85.330596 -61.828718 62.625849 0.000000 0.000000 0.000000 26.144532 -4.255852 -2.890039 47.616096 8.159185 -4.738391 97.134643 60.801911 75.091678 0.000000 0.000000 0.000000 
0.021561 0.928147 0.109189 -0.612224 -5.927760 -1.275698 -1.454769 -0.055458 -0.532199 -2.044793 0.227750 18.939110 3.535020 7.810862 1.133931 0.000000 0.000000 0.000000 -2.746704 0.300568 -2.856894 1.449230 1.274224 29.074888 -3.731889 -9.057897 -0.464071 0.000000 0.000000 0.000000 4.191729 -0.927371 12.724252 -6.809332 2.131139 -25.411678 -0.623721 6.101788 32.472939 11.828762 -3.744320 -34.405022 0.000000 0.000000 0.000000 -15.691082 -3.652536 0.828513 -47.001326 2.069964 -9.033883 -102.403534 -61.994603 79.959876 0.000000 0.000000 0.000000 25.995956 -4.205742 -3.246179 47.202575 10.466759 -3.834132 117.031930 57.921604 92.850908 0.000000 0.000000 0.000000 
0.024459 0.920658 0.133159 -0.744188 -7.250280 -1.655303 -1.141095 0.028170 0.276946 -3.629955 0.857037 21.333435 4.379514 9.421996 0.246969 0.000000 0.000000 0.000000 -3.179642 0.765539 -8.854258 3.952240 1.340190 42.594855 -4.678878 -12.336664 2.865098 0.000000 0.000000 0.000000 3.989491 -0.950599 13.883007 -5.824571 1.878826 -24.964516 -1.392470 5.391123 31.801985 11.669164 -3.859822 -34.491915 0.000000 0.000000 0.000000 -15.108374 -5.092978 1.886538 -47.823183 -0.953789 -8.089526 -113.784755 -62.220328 93.758344 0.000000 0.000000 0.000000 25.359081 -3.207694 -3.105110 49.240303 12.911991 -2.716273 128.102571 53.820907 101.234274 0.000000 0.000000 0.000000 
0.025479 0.912906 0.158770 -1.303955 -7.575766 -1.329072 -0.401815 0.149803 1.480523 -4.430618 1.187406 22.406106 4.511685 9.319825 -2.155928 0.000000 0.000000 0.000000 -2.940856 1.345651 -15.184168 6.775551 0.290725 49.581947 -7.315002 -18.607828 7.370996 0.000000 0.000000 0.000000 4.495181 -1.131063 15.825899 -5.384996 1.752344 -26.045779 -2.367733 3.686639 32.000353 11.988660 -4.272417 -34.991719 0.000000 0.000000 0.000000 -14.714982 -7.479343 3.471967 -47.733371 -4.532242 -6.852102 -126.155577 -63.233738 111.360181 0.000000 0.000000 0.000000 25.364090 -2.599650 -3.377354 50.324079 13.444311 -2.353379 134.048613 48.160274 101.100307 0.000000 0.000000 0.000000 
